<svg width="30" height="30" viewBox="0 0 30 30" fill="none" xmlns="http://www.w3.org/2000/svg">
<path fill-rule="evenodd" clip-rule="evenodd" d="M5.16394 25.3602C2.42318 22.7573 0.714294 19.0782 0.714294 15C0.714294 7.11023 7.11023 0.714294 15 0.714294C22.8898 0.714294 29.2857 7.11023 29.2857 15C29.2857 19.0771 27.5778 22.7552 24.8384 25.358C24.5959 25.5885 24.3453 25.8105 24.0871 26.0236C21.6176 28.0615 18.4518 29.2857 15 29.2857C11.1884 29.2857 7.72551 27.793 5.16394 25.3602ZM23.6051 24.9344C22.1785 24.5344 20.257 24.1887 19.5701 24.1894C18.4286 24.1905 18.1354 22.8625 18.1429 20.5211C18.7143 20.5196 19.8506 17.7767 19.8572 16.6339C20.4285 16.6338 20.994 14.451 21.007 13.8796C21.0322 12.7697 20.7331 12.7704 20.4544 12.771C20.4458 12.771 20.4372 12.771 20.4286 12.771C20.7143 11.6281 20.7143 10.2911 20.7143 9.72164C20.7143 6.86249 18.7186 4.87603 15.0001 4.90861C11.2815 4.94118 9.28578 6.86249 9.28578 9.72164C9.28578 10.2911 9.28578 11.6281 9.57149 12.7715C9.56342 12.7715 9.55542 12.7714 9.54749 12.7714C9.27508 12.77 9.09372 12.7691 9.08691 13.881C9.08429 14.451 9.57144 16.6358 10.1429 16.6358C10.1429 17.7767 10.9266 20.5211 11.8572 20.5196C11.9055 22.8676 11.5711 24.1143 10.4286 24.1518C9.74124 24.1744 7.82109 24.5303 6.39523 24.9347C3.61539 22.5249 1.85715 18.9678 1.85715 15C1.85715 7.74141 7.74141 1.85715 15 1.85715C22.2586 1.85715 28.1429 7.74141 28.1429 15C28.1429 18.9676 26.3848 22.5246 23.6051 24.9344Z" fill="black"/>
</svg>
